<?xml version="1.0" encoding="UTF-8" standalone="no"?>
<!-- Created with Inkscape (http://www.inkscape.org/) -->

<svg
   xmlns:dc="http://purl.org/dc/elements/1.1/"
   xmlns:cc="http://creativecommons.org/ns#"
   xmlns:rdf="http://www.w3.org/1999/02/22-rdf-syntax-ns#"
   xmlns:svg="http://www.w3.org/2000/svg"
   xmlns="http://www.w3.org/2000/svg"
   xmlns:sodipodi="http://sodipodi.sourceforge.net/DTD/sodipodi-0.dtd"
   xmlns:inkscape="http://www.inkscape.org/namespaces/inkscape"
   width="256px"
   height="256px"
   viewBox="0 0 256 256"
   version="1.1"
   id="SVGRoot"
   inkscape:version="0.92.3 (2405546, 2018-03-11)"
   sodipodi:docname="Macropus.svg"
   inkscape:export-xdpi="96"
   inkscape:export-ydpi="96">
  <sodipodi:namedview
     id="base"
     pagecolor="#ffffff"
     bordercolor="#666666"
     borderopacity="1.0"
     inkscape:pageopacity="0.0"
     inkscape:pageshadow="2"
     inkscape:zoom="5.854499"
     inkscape:cx="73.569101"
     inkscape:cy="132.25839"
     inkscape:document-units="px"
     inkscape:current-layer="SVGRoot"
     showgrid="false"
     inkscape:window-width="3840"
     inkscape:window-height="2041"
     inkscape:window-x="-14"
     inkscape:window-y="-14"
     inkscape:window-maximized="1"
     inkscape:grid-bbox="true"
     inkscape:measure-start="0,0"
     inkscape:measure-end="0,0"
     inkscape:snap-global="false" />
  <defs
     id="defs3713">
    <filter
       inkscape:collect="always"
       style="color-interpolation-filters:sRGB"
       id="filter6792"
       x="-0.10677973"
       width="1.2135595"
       y="-0.16099818"
       height="1.3219964">
      <feGaussianBlur
         inkscape:collect="always"
         stdDeviation="2.0839628"
         id="feGaussianBlur6794" />
    </filter>
  </defs>
  <metadata
     id="metadata3716">
    <rdf:RDF>
      <cc:Work
         rdf:about="">
        <dc:format>image/svg+xml</dc:format>
        <dc:type
           rdf:resource="http://purl.org/dc/dcmitype/StillImage" />
        <dc:title></dc:title>
      </cc:Work>
    </rdf:RDF>
  </metadata>
  <g
     id="layer1"
     inkscape:groupmode="layer"
     inkscape:label="Layer 1" />
  <g
     inkscape:groupmode="layer"
     id="layer2"
     inkscape:label="Layer 2"
     style="display:inline" />
  <path
     id="path4699"
     style="fill:#000000;fill-opacity:1;stroke:none;stroke-width:0.81485754;stroke-opacity:1"
     d="m 131.44922,18.662109 c -11.01802,-0.04385 -21.96628,1.44801 -31.724611,6.869141 -31.612364,12.967946 -51.129822,48.813361 -44.941406,84.7832 -3.497062,-1.33144 -6.147967,-2.27304 -9.943359,-1.50976 -3.699918,0.74408 -9.030924,2.91491 -10.544922,6.73047 -7.165179,8.74089 -1.173075,23.75645 -11.509766,30.15429 -8.693477,3.38983 -27.5914758,14.74904 -14.4062498,23.93164 9.8446508,2.66269 21.7579288,3.02404 30.5019528,-2.85156 6.339679,-10.83746 7.707526,0.38872 8.869141,7.16211 6.50393,12.63461 -20.314709,21.6171 -6.419922,30.86524 11.49619,-0.65407 22.191283,-7.99965 29.179688,-16.89454 2.767742,-1.38107 3.642865,-14.58782 5.966796,-10.16406 2.49691,8.11768 10.580281,12.90492 12.515626,21.14649 0.555076,10.62653 -17.089731,23.50968 -3.734376,32.72851 9.34491,3.92038 15.225868,-1.25238 18.134768,-9.72461 7.7409,-8.29117 24.40368,-11.76556 22.47656,-26.30664 4.97195,-1.93817 6.12873,12.80093 7.00195,17.63281 2.56921,13.78979 23.09202,17.42598 31.78125,7.54102 2.71219,-3.3685 1.62402,-7.83634 -1.28711,-10.69727 -1.70792,-3.54647 -8.79879,-2.1594 -7.91992,-7 1.83873,-7.8158 6.46486,-15.87268 3.72266,-24.13281 0.0504,-2.85461 -7.8928,-5.57928 -6.07227,-5.93164 6.48927,4.2755 12.88587,10.01536 20.88868,10.94336 10.32093,2.03679 23.08362,-1.94654 26.67382,-12.73438 1.0468,7.75354 8.45992,12.60722 14.83008,16 11.10891,5.09228 25.42273,6.42683 35.61524,-1.23046 8.28912,-12.71873 -8.20181,-10.82081 -13.89844,-15.92188 -8.4056,-11.2996 -1.20231,-25.3247 -1.19141,-37.91211 2.04045,-10.91974 -3.47962,-23.33924 -15.79297,-23.02148 -7.68671,0.92703 -8.9781,4.31454 -9.30859,1.90625 -0.5212,-3.79797 3.02073,-6.01323 1.83008,-20.363284 -1.75749,-15.801941 -6.92894,-31.721397 -17.5293,-43.808594 -11.83625,-12.559927 -26.82205,-23.673641 -44.0957,-26.970703 -6.42111,-0.613935 -13.05716,-1.192442 -19.66797,-1.21875 z"
     inkscape:connector-curvature="0"
     sodipodi:nodetypes="sccscccccccccccccccccccccccccccccs" />
  <path
     style="fill:#f6310a;fill-opacity:1;stroke:#ff3810;stroke-width:0.24156013;stroke-opacity:1"
     d="m 87.418658,228.23307 c -1.175403,-0.41602 -1.937998,-1.50854 -2.57412,-3.68777 -0.999685,-3.42473 -0.167015,-6.09963 4.013917,-12.89449 4.150492,-6.74538 4.890685,-9.37147 3.820682,-13.55514 -0.794781,-3.10756 -2.539374,-6.2145 -6.520669,-11.61264 -3.854814,-5.22663 -5.448394,-8.02496 -6.280957,-11.02937 -0.588356,-2.12315 -0.641229,-5.07203 -0.12638,-7.04867 0.199287,-0.76511 0.364727,-1.90215 0.367645,-2.52674 0.01155,-2.47301 1.634207,-4.33918 5.69092,-6.54496 3.759359,-2.0441 4.207741,-2.36854 4.207741,-3.04463 0,-0.46976 -0.24365,-0.7185 -1.147411,-1.1714 -0.631076,-0.31624 -1.582219,-0.71411 -2.113651,-0.88414 -0.576425,-0.18443 -1.611286,-0.91487 -2.565117,-1.81054 -3.149843,-2.9578 -4.019264,-2.36059 -4.923943,3.38232 -0.819821,5.20422 -1.849114,7.88265 -3.423199,8.90783 -1.057123,0.68849 -1.978274,2.75429 -4.434805,9.94562 -3.182202,9.31567 -4.720527,12.30443 -8.084269,15.70664 -1.195723,1.2094 -2.771902,2.54902 -3.502622,2.97694 -0.730719,0.42792 -1.872091,1.20811 -2.536381,1.73376 -3.010306,2.38205 -9.71615,5.0862 -12.757586,5.14453 -1.477901,0.0283 -1.705646,-0.0307 -2.128698,-0.55146 -0.948493,-1.16768 0.167493,-3.38452 3.532958,-7.01801 3.83361,-4.13892 5.345737,-7.4915 5.941454,-13.17296 0.431385,-4.1142 -0.131996,-8.33303 -1.814134,-13.58494 -1.333511,-4.16344 -1.700238,-6.59374 -1.519394,-10.06904 0.478454,-9.19452 6.215458,-18.73965 15.328631,-25.50351 1.39434,-1.03489 2.629578,-2.15564 2.880851,-2.61385 0.428677,-0.78171 0.427938,-0.81094 -0.02902,-1.14741 -0.570215,-0.41986 -1.791674,-0.44312 -3.126477,-0.0595 -1.390881,0.3997 -5.515419,4.58459 -9.241448,9.37668 -1.601184,2.0593 -3.354381,4.14399 -3.895995,4.63264 -0.847381,0.76453 -1.24476,1.52271 -2.848625,5.4351 -2.245057,5.47649 -3.131257,7.29025 -4.870785,9.96889 -2.508015,3.862 -5.670327,6.57384 -9.537596,8.17894 -1.901592,0.78925 -8.008027,2.2315 -12.05412,2.847 -3.465024,0.5271 -7.802647,0.36646 -9.677281,-0.35841 -2.1094657,-0.81566 -3.5749317,-2.75511 -3.5804393,-4.73846 -0.00213,-0.76598 1.8057853,-3.33252 3.3631053,-4.77433 1.773315,-1.64177 3.6183,-2.86365 8.834334,-5.8507 5.148075,-2.94814 6.610029,-3.98552 8.621269,-6.11754 2.656402,-2.81592 3.576371,-5.3295 3.578943,-9.77853 0.0029,-5.11338 1.128386,-9.96304 3.374699,-14.54211 2.908338,-5.9286 6.454641,-8.7973 10.892471,-8.81121 2.421727,-0.008 3.755931,0.41266 8.075717,2.54377 1.992871,0.98316 3.982455,1.85913 4.421297,1.94661 0.746233,0.14875 0.789518,0.12173 0.668528,-0.41722 C 57.680205,106.96011 56.843832,90.940063 58.005,83.216108 58.988553,76.673599 61.095274,70.103513 64.201561,63.891297 67.700709,56.893406 72.00941,50.962409 77.809503,45.159739 90.575942,32.387631 106.73163,24.745558 124.02031,23.300787 c 3.61668,-0.302237 14.60996,-0.152051 18.18788,0.248476 13.43737,1.504234 25.9449,6.717468 37.42806,15.600308 3.45781,2.674802 10.32204,9.508403 13.04662,12.98841 7.00762,8.950552 11.90549,19.020032 14.11791,29.024866 0.35256,1.594296 0.84866,3.768338 1.10245,4.831202 0.77778,3.257352 0.95807,4.922237 0.95997,8.864962 0.002,4.154385 -0.31136,7.013929 -1.56976,14.324809 -0.84888,4.93174 -1.5687,10.04581 -1.5687,11.14507 0,0.55499 0.187,0.43819 1.99287,-1.24471 2.50714,-2.3364 5.72331,-4.47261 8.25109,-5.48042 1.81446,-0.72343 2.16297,-0.78001 4.85355,-0.78796 2.72977,-0.008 2.97616,0.0318 4.2273,0.68425 3.9899,2.08066 6.24086,5.60224 7.01695,10.97788 0.63728,4.41409 -0.1973,14.18148 -2.21234,25.89189 -0.67681,3.93326 -0.83752,7.5792 -0.46467,10.54135 1.1877,9.43589 6.3462,16.03883 14.02289,17.94944 2.27694,0.5667 3.23088,1.05078 3.93664,1.99765 0.43373,0.58191 0.45652,0.76341 0.20232,1.61182 -0.97993,3.27075 -9.65733,7.18506 -13.97187,6.30262 -0.63928,-0.13075 -2.19046,-0.40121 -3.44706,-0.60103 -9.20392,-1.46358 -15.72862,-4.26287 -20.74387,-8.89976 -2.52834,-2.3376 -3.54791,-3.60432 -4.50058,-5.59153 -1.2068,-2.51733 -1.68267,-4.98724 -1.67546,-8.69617 0.007,-3.4973 0.27824,-5.56274 1.32224,-10.06076 2.19545,-9.45906 2.91953,-14.02183 2.92681,-18.44333 0.0133,-8.08803 -2.60313,-11.88207 -9.47351,-13.73726 -7.10673,-1.919 -13.6385,-1.00541 -18.71597,2.6178 -1.99295,1.42214 -3.52836,3.2033 -4.69186,5.44279 -1.22806,2.36376 -1.66203,4.12369 -1.91588,7.7696 -0.2344,3.36671 -0.62445,4.4416 -2.07343,5.71382 -1.5392,1.35142 -2.62029,1.50587 -10.04797,1.43543 -6.42297,-0.0609 -6.676,-0.0455 -7.99691,0.48865 -0.75024,0.30336 -1.66256,0.84687 -2.02737,1.2078 -0.87701,0.86769 -2.04323,3.35142 -2.04347,4.35204 -7.2e-4,3.44137 4.071,3.49418 6.28235,0.0815 0.44471,-0.6863 1.02119,-1.26343 1.3426,-1.3441 0.30979,-0.0778 3.09613,-0.13645 6.19185,-0.13044 3.09573,0.006 6.06341,-0.0994 6.59484,-0.23429 0.53143,-0.13487 1.04088,-0.2478 1.13209,-0.25097 0.0912,-0.003 -0.15074,0.93086 -0.5377,2.07563 -2.40229,7.10692 -7.81708,12.66559 -13.37332,13.72868 -2.87351,0.54979 -4.69443,1.69104 -5.85331,3.66851 -1.22047,2.08258 -1.23764,4.01898 -0.0513,5.78699 0.31159,0.46436 1.61136,1.54573 2.88838,2.40303 3.35854,2.25469 4.32104,3.82944 4.32104,7.06965 0,2.31582 -0.5337,4.49623 -2.31028,9.43859 -1.54919,4.30976 -2.27528,7.13489 -2.27767,8.86215 -0.004,3.20438 1.5216,5.3919 4.92052,7.05343 2.40617,1.17622 3.91073,2.43811 4.53109,3.80023 0.58511,1.28473 0.55891,1.93143 -0.139,3.43039 -1.86416,4.00391 -8.47549,6.99793 -13.9727,6.32773 -2.78115,-0.33907 -4.31428,-1.25611 -7.00838,-4.19206 -1.28373,-1.39897 -2.61021,-3.08853 -2.94772,-3.75458 -0.95799,-1.89051 -1.52306,-4.79032 -1.92989,-9.90374 -0.43419,-5.4573 -0.67646,-6.99398 -1.42991,-9.06972 -0.81619,-2.24856 -2.04081,-3.74422 -4.32062,-5.27687 -3.69124,-2.48153 -7.87239,-6.51388 -10.67231,-10.29255 -2.42184,-3.26842 -4.24029,-8.12014 -4.22884,-11.28275 0.009,-2.56044 1.34687,-6.59325 2.91923,-8.80143 l 0.51345,-0.72106 -0.54884,-0.58421 c -0.7637,-0.81292 -1.29489,-0.92498 -2.24575,-0.47376 -2.3828,1.13071 -5.48526,8.55419 -5.54496,13.26784 -0.0232,1.83505 0.035,2.06869 0.96809,3.88495 0.54606,1.06286 1.9882,3.61736 3.20477,5.67666 3.66079,6.19666 5.04678,9.38252 5.58171,12.83025 0.6888,4.43943 -1.03663,8.87069 -4.52108,11.61102 -0.89858,0.70669 -3.56766,2.70346 -5.93128,4.43728 -5.28444,3.87636 -7.93597,6.15851 -10.00788,8.61372 -1.80697,2.14124 -3.538132,5.02998 -4.124087,6.88172 -0.41916,1.32463 -0.605649,1.46683 -2.611878,1.99166 -1.383555,0.36193 -4.654014,0.28003 -5.859841,-0.14675 z"
     id="path5650"
     inkscape:connector-curvature="0" />
  <path
     style="fill:#fca190;fill-opacity:1;stroke-width:0.81485754;filter:url(#filter6792)"
     d="m 82.280496,63.204518 c -0.80521,-1.163128 -2.10573,-2.813215 -2.89003,-3.666859 -2.46925,-2.68758 -1.62159,-4.22687 5.47883,-9.949125 11.56637,-9.321409 27.331704,-16.098872 35.509914,-15.265607 4.96547,0.505929 6.20499,2.081423 2.24187,2.849532 -1.4803,0.286896 -6.53205,2.428739 -11.2261,4.759656 -7.08975,3.520528 -9.64192,5.341653 -15.074874,10.756878 -3.59713,3.585373 -7.56423,7.893933 -8.81581,9.574576 -1.25158,1.680644 -2.60953,3.055716 -3.01768,3.055716 -0.40813,0 -1.40089,-0.951647 -2.20612,-2.114767 z"
     id="path4699-9-2"
     inkscape:connector-curvature="0"
     sodipodi:nodetypes="cccccccssc" />
  <path
     style="fill:#000000;stroke-width:0.81485754"
     d="m 159.98709,104.45615 c -4.46393,-2.72178 -5.06986,-8.823523 -1.25505,-12.638343 2.8507,-2.85069 8.40439,-2.89533 11.20961,-0.0901 3.97692,3.97691 3.45986,9.335533 -1.2058,12.496743 -3.31918,2.24892 -5.35209,2.30276 -8.74876,0.2317 z m -56.05312,-0.36222 c -8.333564,-3.56456 -5.642934,-14.333193 3.58129,-14.333193 3.33082,0 6.5516,2.98698 7.12817,6.61071 0.39339,2.47255 0.0955,3.34056 -1.86095,5.421743 -2.80721,2.98623 -5.56778,3.70403 -8.84851,2.30074 z m 70.43665,-21.647885 c -1.1473,-0.857475 -3.89744,-1.904909 -6.11144,-2.327616 l -4.02543,-0.768574 4.07428,-0.08809 c 4.08229,-0.08826 9.37086,2.151208 9.37086,3.968132 0,1.20423 -0.94915,0.97934 -3.30827,-0.783856 z M 98.416816,79.841181 c 1.843824,-1.843819 9.901364,-3.307849 8.850914,-1.608186 -0.31768,0.514028 -1.38102,0.950686 -2.36296,0.970356 -0.98193,0.01964 -3.21874,0.54655 -4.970674,1.170828 l -3.18534,1.135065 z"
     id="path4699-9"
     inkscape:connector-curvature="0"
     sodipodi:nodetypes="cccccssccscccsscccccccc" />
  <path
     style="fill:#f6310a;fill-opacity:1;stroke:#ff3810;stroke-width:0.24156013;stroke-opacity:1"
     d="m 188.29477,141.57853 c -3.23732,-1.1564 -6.1783,-4.44763 -7.11376,-7.96098 -0.61665,-2.31595 -0.27258,-3.93384 1.11885,-5.26116 1.22853,-1.17192 2.77593,-1.53978 5.527,-1.31391 1.14163,0.0937 2.18439,0.17476 2.31725,0.18006 0.13286,0.005 1.03137,-0.11943 1.99669,-0.27719 4.78688,-0.78232 7.40052,1.55584 6.5829,5.88905 -0.51509,2.72987 -2.80454,6.509 -4.76719,7.86905 -1.6845,1.16731 -3.88955,1.50812 -5.66174,0.87508 z"
     id="path5652"
     inkscape:connector-curvature="0" />
  <path
     style="fill:#fa8771;fill-opacity:1;stroke:#ff3810;stroke-width:0.24156013;stroke-opacity:1"
     d="m 173.38297,181.39949 c -3.55606,-0.77148 -7.07864,-2.36293 -10.41437,-4.70506 -1.1293,-0.79292 -3.14028,-2.16248 -4.46887,-3.04347 -2.79761,-1.85511 -3.74418,-2.67606 -3.74418,-3.24729 0,-0.56684 0.36623,-0.80776 2.17404,-1.43017 5.73078,-1.97303 10.50032,-6.15128 14.69609,-12.87418 2.14873,-3.44292 5.59203,-10.80575 6.04591,-12.92801 0.1506,-0.70414 0.43964,-1.60094 0.64232,-1.99287 0.66944,-1.29457 1.29832,-1.00993 4.4298,2.00494 2.16727,2.08657 3.24193,2.92792 4.62841,3.62357 3.9292,1.97142 6.2519,0.9186 11.36123,-5.14977 2.22656,-2.6445 3.20178,-3.60695 3.6548,-3.60695 0.36522,0 0.65721,0.93445 0.92814,2.9704 0.38767,2.91317 -0.0147,6.27206 -1.38032,11.52321 -0.60466,2.32501 -1.4115,5.42302 -1.79298,6.88446 -0.38147,1.46144 -0.86719,3.79853 -1.07938,5.19354 -0.57851,3.80344 -1.36388,6.17565 -2.72702,8.23699 -2.97722,4.50214 -7.75941,7.59633 -13.20929,8.5467 -2.5907,0.45179 -7.64847,0.44865 -9.74433,-0.006 z"
     id="path5654"
     inkscape:connector-curvature="0" />
  <ellipse
     style="fill:#000000;fill-opacity:1;fill-rule:evenodd;stroke:#f86042;stroke-opacity:1"
     id="path6796"
     cx="192.75774"
     cy="154.19795"
     rx="2.9891541"
     ry="2.9037497" />
  <ellipse
     style="fill:#000000;fill-opacity:1;fill-rule:evenodd;stroke:#f86042;stroke-opacity:1"
     id="path6796-9"
     cx="176.21812"
     cy="162.99936"
     rx="2.9891541"
     ry="2.9037497" />
  <ellipse
     style="fill:#000000;fill-opacity:1;fill-rule:evenodd;stroke:#f86042;stroke-opacity:1"
     id="path6796-2"
     cx="185.63898"
     cy="173.86957"
     rx="2.9891541"
     ry="2.9037497" />
</svg>
